<svg xmlns="http://www.w3.org/2000/svg" viewBox="0 0 24 24" fill="none" stroke="currentColor" stroke-width="2" stroke-linecap="round" stroke-linejoin="round">
  <!-- Brain icon representing neurodiversity -->
  <path d="M12 2a7 7 0 0 0-7 7c0 2.38 1.19 4.47 3 5.74V17a2 2 0 0 0 2 2h4a2 2 0 0 0 2-2v-2.26c1.81-1.27 3-3.36 3-5.74a7 7 0 0 0-7-7z" stroke="#4F46E5" fill="#EEF2FF"/>
  <!-- Adaptation waves -->
  <path d="M8 21h8" stroke="#4F46E5"/>
  <path d="M9 21v1" stroke="#4F46E5"/>
  <path d="M15 21v1" stroke="#4F46E5"/>
  <!-- Neural connections -->
  <circle cx="10" cy="8" r="1" fill="#4F46E5"/>
  <circle cx="14" cy="8" r="1" fill="#4F46E5"/>
  <circle cx="12" cy="11" r="1" fill="#4F46E5"/>
  <line x1="10" y1="8" x2="12" y2="11" stroke="#4F46E5" stroke-width="1"/>
  <line x1="14" y1="8" x2="12" y2="11" stroke="#4F46E5" stroke-width="1"/>
</svg>
